<svg
  xmlns="http://www.w3.org/2000/svg"
  viewBox="0 0 20 20">
  <style>
    path {
      fill-opacity:1;
    }

    .fill {
      fill:#BBBBBB;
    }

    .border {
      fill:#18181B;
    }

    @media(prefers-color-scheme: dark) {
      .fill {
        fill:#4F4F4F;
      }

      .border {
        fill:#FAFAFA;
      }
    }
  </style>

  <path
    class="border"
    d="M 3.0644531 8.4453125 C 2.4018323 8.7028829 2.0234375 9.0025038 2.0234375 9.3203125 L 2.0234375 10.359375 C 2.0234375 10.847513 2.1910885 11.266516 2.5234375 11.611328 L 7.5019531 16.587891 C 7.8405337 16.926472 7.9998865 17.353659 8.0019531 17.841797 L 8.0058594 19.515625 C 8.0058594 20.695465 12.001953 19.494292 12.001953 18.314453 L 12 17.820312 C 11.995846 17.334252 12.159343 16.906939 12.5 16.568359 L 17.476562 11.611328 C 17.815143 11.272748 17.976562 10.847513 17.976562 10.359375 L 17.976562 9.3203125 C 17.976562 9.1603696 17.87798 9.0049016 17.697266 8.8574219 C 17.610023 8.928046 17.515972 8.9910388 17.412109 9.0429688 L 16.835938 9.3320312 C 16.808935 9.9801116 13.759697 10.501953 10 10.501953 C 6.2236848 10.501953 3.1640625 9.9725473 3.1640625 9.3203125 C 3.1640625 9.2247621 3.2326668 9.1303343 3.359375 9.0410156 L 3.0644531 8.4453125 z M 3.0410156 10.535156 C 4.4327797 11.307777 7.2708098 11.501953 10 11.501953 C 12.739389 11.501953 15.569975 11.308778 16.958984 10.539062 C 16.93038 10.688979 16.866735 10.807091 16.771484 10.902344 L 11.794922 15.859375 C 11.246245 16.404707 10.993671 17.084868 11 17.824219 L 11.001953 18.185547 C 10.994111 18.193669 10.984813 18.201339 10.974609 18.210938 C 10.963272 18.221603 10.951627 18.234026 10.9375 18.246094 C 10.683165 18.463341 10.238413 18.685006 9.7167969 18.841797 C 9.4368254 18.925953 9.1982989 18.970273 9.0039062 18.988281 L 9.0019531 17.837891 C 8.9988618 17.107703 8.7574606 16.429337 8.2089844 15.880859 L 3.2441406 10.917969 C 3.1369521 10.806761 3.06995 10.682258 3.0410156 10.535156 z "/>
  <path
    class="border"
    d="M 13.411814,9.5582338e-5 C 13.254599,0.00219559 13.094835,0.03880703 12.945243,0.11291666 a 0.07047166,0.07047166 0 0 1 -1.46e-4,7.312e-5 c -1.89e-4,9.327e-5 -3.79e-4,1.8986e-4 -5.68e-4,2.84e-4 L 3.1200246,5.0276051 a 0.07047166,0.07047166 0 0 1 -1.268e-4,6.02e-5 C 2.5888381,5.2919714 2.3728823,5.9451203 2.6368394,6.4754781 a 0.07047166,0.07047166 0 0 1 1.786e-4,3.611e-4 l 1.579e-4,3.205e-4 c 0,2.08e-5 2.07e-5,2.7e-5 2.07e-5,3.95e-5 L 4.0681932,9.334038 c 0.019981,0.039899 0.05692,0.07095 0.09966,0.083773 0.3664559,0.1099368 0.8281784,0.199228 1.1678921,0.2579439 0.059489,0.010274 0.1237625,-0.015429 0.1597728,-0.063881 0.036009,-0.04845 0.042083,-0.1173973 0.0151,-0.1713961 v 0 L 4.1882602,6.7957568 a 0.07047166,0.07047166 0 0 1 0.083457,-0.098947 l 4.1879134,1.2688711 a 0.07047166,0.07047166 0 0 1 -0.017684,0.137838 c -0.06024,0.00236 -0.1176753,0.040778 -0.1428428,0.095558 v 0 l -0.691702,1.5059578 v 0 c -0.022169,0.048286 -0.018929,0.1074143 0.00839,0.1529855 0.027317,0.045567 0.077933,0.076294 0.1309639,0.079501 0.1723337,0.010379 0.3439383,0.020861 0.5169389,0.02719 0.067684,0.00247 0.1346054,-0.041575 0.1591113,-0.1047149 v 0 l 0.5504488,-1.418711 v 0 c 0.026407,-0.068084 5.341e-4,-0.1526516 -0.059447,-0.194306 A 0.07047166,0.07047166 0 0 1 8.9744312,8.1216667 L 10.50282,8.5847446 a 0.07047166,0.07047166 0 0 1 2.1e-5,0 c 4.53e-4,1.372e-4 9.05e-4,2.723e-4 0.0014,4.057e-4 0.308635,0.090599 0.641069,-0.073787 0.756436,-0.3775646 l 2.1e-5,-4.36e-5 c 6.6e-5,-1.766e-4 1.32e-4,-3.511e-4 1.99e-4,-5.274e-4 a 0.07047166,0.07047166 0 0 1 2.9e-5,-7.27e-5 l 0.588419,-1.5676649 a 0.07047166,0.07047166 0 0 1 0.136412,0.026631 c -0.0019,0.072435 0.05002,0.1428892 0.119779,0.1624828 l 3.559258,0.9990886 a 0.07047166,0.07047166 0 0 1 0.01248,0.1308586 l -3.310021,1.655899 c -0.06714,0.033653 -0.104611,0.1174765 -0.08491,0.1899486 0.01972,0.072484 0.0945,0.1257909 0.169449,0.120781 0.620137,-0.041761 1.238987,-0.1023487 1.846344,-0.1903016 l 1.14e-4,-2.07e-5 c 1.37e-4,-2.09e-5 2.76e-4,-4.37e-5 4.14e-4,-6.44e-5 a 0.07047166,0.07047166 0 0 1 2.8e-4,-4.16e-5 c 0.171536,-0.025413 0.545049,-0.085898 0.932249,-0.1679678 0.01362,-0.00288 0.02687,-0.00752 0.03933,-0.013737 L 17.180379,8.59894 a 0.07047166,0.07047166 0 0 1 0.0044,-0.00202 c 0.0085,-0.00357 0.01486,-0.00663 0.01807,-0.00839 a 0.07047166,0.07047166 0 0 1 0.0029,-0.00235 c 0.0025,-0.00121 0.0051,-0.00253 0.0075,-0.00387 1.96e-4,-1.226e-4 0.0031,-0.00211 6.98e-4,-4.38e-4 a 0.07047166,0.07047166 0 0 1 0.0085,-0.00493 c 0.0013,-7.778e-4 0.0025,-0.00156 0.0037,-0.00237 l 2.1e-5,-2.07e-5 c 0.0027,-0.00185 0.0046,-0.00356 0.01331,-0.00722 0.0023,-9.866e-4 0.004,-0.00331 0.0095,-0.00479 a 0.07047166,0.07047166 0 0 1 7.66e-4,-4.259e-4 c 7.47e-4,-3.72e-4 0.0015,-7.485e-4 0.0022,-0.00114 a 0.07047166,0.07047166 0 0 1 3.97e-4,-1.06e-4 0.07047166,0.07047166 0 0 1 0.0013,-7.87e-4 c 0.0035,-0.00183 0.0066,-0.00417 0.0099,-0.00625 a 0.07047166,0.07047166 0 0 1 0.0028,-0.00241 0.07047166,0.07047166 0 0 1 0.0039,-0.0062 c 0.0029,-0.00284 0.0058,-0.0058 0.0084,-0.00885 a 0.07047166,0.07047166 0 0 1 0.02994,-0.019948 c 0.0061,-0.00208 0.01204,-0.00452 0.01783,-0.00729 l -0.0053,0.00362 a 0.07047166,0.07047166 0 0 1 0.0054,-0.00329 c 5.5e-5,-4.99e-5 1.09e-4,-9.97e-5 1.63e-4,-1.496e-4 l -1.71e-4,-2.392e-4 c 3.21e-4,-1.537e-4 6.29e-4,-3.345e-4 9.49e-4,-4.911e-4 8.18e-4,-7.843e-4 0.0017,-0.00152 0.0025,-0.00232 a 0.07047166,0.07047166 0 0 1 0.0084,-0.00514 0.07047166,0.07047166 0 0 1 0.0092,-0.00772 c 0.0043,-0.00215 0.0084,-0.00463 0.01246,-0.00715 0.0016,-0.00147 0.0033,-0.00289 0.0048,-0.00443 a 0.07047166,0.07047166 0 0 1 0.0083,-0.00509 c 0.0026,-0.00229 0.0054,-0.00452 0.0079,-0.00697 a 0.07047166,0.07047166 0 0 1 0.0048,-0.00293 c 6.8e-5,-6.43e-5 1.45e-4,-1.184e-4 2.15e-4,-1.827e-4 a 0.07047166,0.07047166 0 0 1 0.0032,-0.00281 C 17.768931,8.1509833 17.89832,7.6054261 17.670604,7.1475717 a 0.07047166,0.07047166 0 0 1 -1.54e-4,-3.165e-4 l -3.7e-5,-6.85e-5 c -5e-5,-1.039e-4 -1.02e-4,-2.084e-4 -1.53e-4,-3.125e-4 l -3.27542,-6.55081769 -1.09e-4,-2.2316e-4 c 0,-1.453e-5 -2.1e-5,-2.926e-5 -2.5e-5,-4.463e-5 a 0.07047166,0.07047166 0 0 1 -1.15e-4,-2.2316e-4 C 14.203179,0.21449327 13.813602,-0.0052699 13.411814,9.5582338e-5 Z M 12.495269,1.7446049 a 0.07047166,0.07047166 0 0 1 0.05405,0.09809 l -2.26185,5.1338392 a 0.07047166,0.07047166 0 0 1 -0.08042,0.040229 L 4.7410672,5.7477425 A 0.07047166,0.07047166 0 0 1 4.7254842,5.6160806 L 12.45332,1.7512624 a 0.07047166,0.07047166 0 0 1 0.04195,-0.00665 z m 1.166444,0.2308228 a 0.07047166,0.07047166 0 0 1 0.05044,0.037812 l 2.421496,4.8429971 a 0.07047166,0.07047166 0 0 1 -0.07794,0.1003823 L 12.321731,6.1483264 c -0.05941,-0.012855 -0.125182,0.01056 -0.163104,0.058063 a 0.07047166,0.07047166 0 0 1 -0.12104,-0.068725 l 1.54557,-4.1176788 a 0.07047166,0.07047166 0 0 1 0.07856,-0.044558 z m 3.657834,6.5410619 -0.0016,0.00108 0.0025,0.00337 a 0.07047166,0.07047166 0 0 1 7.74e-4,-0.00171 z m -0.03557,0.023526 -0.0024,0.00161 1.18e-4,3.287e-4 a 0.07047166,0.07047166 0 0 1 0.0023,-0.00195 z m -0.06342,0.038582 -2e-4,1.018e-4 v 0 a 0.07047166,0.07047166 0 0 1 1.95e-4,-1.101e-4 z m -0.0082,0.00443 -0.0013,7.747e-4 a 0.07047166,0.07047166 0 0 1 0.0012,-6.327e-4 0.07047166,0.07047166 0 0 1 1.32e-4,-1.412e-4 z m 0.146949,0.076385 a 0.07047166,0.07047166 0 0 1 -0.0049,0.00191 0.07047166,0.07047166 0 0 1 -0.0037,0.00383 l -0.0017,0.00111 v 0 z"/>
  <path
    class="fill"
    d="M 3.0410156,10.535156 C 4.4327811,11.307777 7.2708071,11.501953 10,11.501953 c 2.739392,0 5.569974,-0.193175 6.958984,-0.96289 -0.0286,0.149917 -0.09225,0.268028 -0.1875,0.363281 l -4.976562,4.957031 C 11.246244,16.404707 10.993671,17.084867 11,17.824219 l 0.002,0.361328 c -0.0078,0.0081 -0.01714,0.01579 -0.02734,0.02539 -0.01134,0.01067 -0.02298,0.02309 -0.03711,0.03516 -0.254335,0.217247 -0.699086,0.438912 -1.2207031,0.595703 -0.2799717,0.08416 -0.5184978,0.128476 -0.7128906,0.146484 l -0.00195,-1.15039 C 8.9988618,17.107702 8.7574612,16.429338 8.2089844,15.880859 L 3.2441406,10.917969 C 3.136952,10.806761 3.06995,10.682258 3.0410156,10.535156 Z"/>
</svg>
